<?xml version="1.0" encoding="UTF-8"?>
<svg id="_レイヤー_1" data-name="レイヤー 1" xmlns="http://www.w3.org/2000/svg" viewBox="0 0 24 24">
  <defs>
    <style>
      .cls-1 {
        fill: #646765;
        stroke-width: 0px;
      }
    </style>
  </defs>
  <path class="cls-1" d="m12,.8C5.8.8.8,5.8.8,12s5,11.2,11.2,11.2,11.2-5,11.2-11.2S18.2.8,12,.8Zm9.8,11.2h0c0,4.5-3,8.2-7.1,9.4h-.1v-3.6c0-.9-.2-1.5-.7-1.9.5-.1,1-.1,1.4-.3h-.1c.5-.1.9-.3,1.3-.5h0c.4-.2.8-.5,1.1-.9h0c.3-.4.5-.8.7-1.4s.3-1.3.3-2c0-1.1-.4-2-1.1-2.8.3-.8.3-1.7-.1-2.7-.2-.1-.6,0-1.1.1-.5.2-.9.4-1.3.6h0l-.5.3c-.6-.2-1.5-.3-2.4-.3s-1.8.1-2.6.4h.1c-.7-1.2-2.2-1.3-2.9-1.1-.5.8-.5,2-.1,2.7-.7.8-1.1,1.7-1.1,2.8,0,.8.1,1.4.3,2,.2.6.4,1,.7,1.4.3.4.7.7,1.1.9h0c.4.2.8.4,1.2.5h0c.4.1.9.2,1.3.2h0c-.4.3-.6.8-.7,1.4-.2.1-.4.2-.6.2h0c-.2,0-.5.1-.7.1h-.1c-.3,0-.6-.1-.9-.3s-.5-.5-.7-.8-.4-.5-.6-.7h0c-.3-.2-.5-.3-.7-.3h-.2c-.1,0-.2.1-.3.2h0v.1c0,.1.1.2.2.3h0c.2.1.4.3.6.5s.3.4.4.7h0l.2.2c.1.3.3.6.6.8h0c.2.2.6.3.9.4h0c.3.1.6.1.9.1h.1c.2,0,.4,0,.6-.1h0l.3-.1v2.8c-4.2-1.1-7.3-4.9-7.3-9.4,0-4,2.4-7.5,5.9-9h.1c1.1-.5,2.4-.8,3.8-.8,5.5.1,9.9,4.5,9.9,9.9h0Z"/>
</svg>