<?xml version="1.0" encoding="UTF-8"?>
<svg id="_レイヤー_1" data-name="レイヤー 1" xmlns="http://www.w3.org/2000/svg" viewBox="0 0 57.44 60">
  <defs>
    <style>
      .cls-1 {
        fill: #fff;
      }

      .cls-1, .cls-2 {
        stroke-width: 0px;
      }

      .cls-2 {
        fill: #646765;
        fill-rule: evenodd;
      }
    </style>
  </defs>
  <path class="cls-1" d="m3.57,2.6L36.72.14c4.08-.36,5.1-.12,7.67,1.74l10.61,7.43c1.74,1.26,2.34,1.62,2.34,3.06v40.89c0,2.58-.96,4.08-4.2,4.32l-38.49,2.4c-2.46.12-3.6-.24-4.92-1.86l-7.79-10.13c-1.38-1.92-1.98-3.3-1.98-4.92V6.68C-.03,4.58.93,2.84,3.57,2.6Z"/>
  <path class="cls-2" d="m36.69.14L3.54,2.6C.84,2.84-.06,4.58-.06,6.68v36.39c.08,1.82.78,3.55,1.98,4.92l7.79,10.13c1.26,1.62,2.46,1.98,4.92,1.86l38.55-2.34c3.24-.24,4.2-1.74,4.2-4.32V12.37c0-1.32-.54-1.68-2.04-2.82l-10.92-7.67C41.85.02,40.77-.22,36.69.14ZM15.47,11.71c-3.12.24-3.84.24-5.64-1.2l-4.56-3.59c-.48-.48-.24-1.08.96-1.14l31.9-2.34c1.84-.24,3.69.3,5.1,1.5l5.46,3.96c.24.12.84.84.12.84l-32.92,1.97h-.42Zm-3.66,41.25V18.25c0-1.5.48-2.22,1.86-2.34l37.83-2.22c1.26-.12,1.86.72,1.86,2.22v34.48c0,1.5-.24,2.82-2.34,2.94l-36.21,2.1c-2.04.12-3-.6-3-2.46h0ZM47.54,20.11c.24,1.08,0,2.1-1.08,2.22l-1.74.36v25.66c-1.23.75-2.64,1.18-4.08,1.26-1.86,0-2.34-.6-3.72-2.34l-11.39-17.93v17.39l3.6.84s0,2.1-2.94,2.1l-8.03.48c-.26-.74.11-1.56.84-1.86l2.1-.6v-23.02l-2.94-.24c-.29-1.17.43-2.36,1.61-2.64.12-.03.25-.05.37-.06l8.63-.6,11.87,18.17v-16.07l-3-.36c-.19-1.09.54-2.12,1.63-2.31.08-.01.15-.02.23-.03l8.03-.42h0Z"/>
</svg>