<?xml version="1.0" encoding="utf-8"?>
<!-- Generator: Adobe Illustrator 27.7.0, SVG Export Plug-In . SVG Version: 6.00 Build 0)  -->
<svg version="1.1" id="レイヤー_1" xmlns="http://www.w3.org/2000/svg" xmlns:xlink="http://www.w3.org/1999/xlink" x="0px"
	 y="0px" viewBox="0 0 48 48" style="enable-background:new 0 0 48 48;" xml:space="preserve">
<style type="text/css">
	.st0{fill:#FFFFFF;}
</style>
<path class="st0" d="M22.6,36h2.8c1.8,0,3.4-0.6,4.7-1.8S32,31.7,32,30c0-1.7-0.6-3.1-1.9-4.2c-1.3-1.2-2.8-1.8-4.7-1.8h-2.8
	c-1.8,0-3.4,0.6-4.7,1.8C16.6,26.9,16,28.3,16,30c0,1.7,0.6,3.1,1.9,4.2S20.8,36,22.6,36z M22.6,33c-1,0-1.9-0.3-2.5-0.9
	C19.4,31.5,19,30.8,19,30c0-0.8,0.4-1.5,1.1-2.1c0.7-0.6,1.5-0.9,2.5-0.9h2.8c1,0,1.9,0.3,2.6,0.9c0.7,0.6,1,1.3,1,2.1
	c0,0.8-0.4,1.5-1,2.1c-0.7,0.6-1.6,0.9-2.6,0.9H22.6z M12,20h4c1.7,0,3.1-0.6,4.2-1.8c1.2-1.2,1.8-2.6,1.8-4.3h-3
	c0,0.8-0.3,1.5-0.9,2.1C17.5,16.7,16.8,17,16,17h-4V20z M32,20h4v-3h-4c-0.8,0-1.5-0.3-2.1-0.9C29.3,15.5,29,14.8,29,14h-3
	c0,1.7,0.6,3.1,1.8,4.3S30.3,20,32,20z M24,44c-2.8,0-5.4-0.5-7.8-1.6s-4.6-2.5-6.4-4.3c-1.8-1.8-3.2-3.9-4.3-6.4S4,26.8,4,24
	s0.5-5.4,1.6-7.8s2.5-4.5,4.3-6.3s3.9-3.2,6.4-4.3S21.2,4,24,4s5.4,0.5,7.8,1.6s4.6,2.5,6.4,4.3s3.2,3.9,4.3,6.3
	c1.1,2.4,1.6,5,1.6,7.8s-0.5,5.4-1.6,7.8c-1,2.4-2.5,4.5-4.3,6.4c-1.8,1.8-3.9,3.2-6.4,4.3S26.8,44,24,44z M24,41
	c4.7,0,8.8-1.6,12.1-4.9C39.4,32.8,41,28.7,41,24s-1.6-8.8-4.9-12.1C32.8,8.6,28.7,7,24,7s-8.8,1.6-12.1,4.9C8.6,15.2,7,19.3,7,24
	s1.6,8.8,4.9,12.1C15.2,39.4,19.3,41,24,41z"/>
</svg>
