<?xml version="1.0" encoding="utf-8"?>
<!-- Generator: Adobe Illustrator 27.7.0, SVG Export Plug-In . SVG Version: 6.00 Build 0)  -->
<svg version="1.1" id="レイヤー_1" xmlns="http://www.w3.org/2000/svg" xmlns:xlink="http://www.w3.org/1999/xlink" x="0px"
	 y="0px" viewBox="0 0 48 48" style="enable-background:new 0 0 48 48;" xml:space="preserve">
<style type="text/css">
	.st0{fill:#FFFFFF;}
</style>
<path class="st0" d="M12.5,32h3v-0.5c0-2.4,0.8-4.4,2.5-6c1.6-1.7,3.7-2.5,6-2.5s4.4,0.8,6,2.5c1.7,1.6,2.5,3.7,2.5,6V32h3v-0.5
	c0-3.2-1.1-5.9-3.3-8.1c-2.2-2.2-5-3.4-8.2-3.4s-5.9,1.1-8.1,3.4c-2.2,2.2-3.4,4.9-3.4,8.1V32z M14.2,18.5c1.4-0.2,2.8-0.7,4.3-1.6
	c1.5-0.9,2.7-1.9,3.6-2.9L19.9,12c-0.7,0.8-1.6,1.5-2.8,2.2c-1.2,0.7-2.3,1.1-3.3,1.2L14.2,18.5z M33.8,18.5l0.4-3
	c-1-0.2-2.1-0.6-3.3-1.2c-1.2-0.7-2.1-1.4-2.8-2.2l-2.3,1.9c0.9,1.1,2.1,2.1,3.6,2.9S32.4,18.3,33.8,18.5z M24,44
	c-2.8,0-5.4-0.5-7.8-1.6s-4.6-2.5-6.4-4.3c-1.8-1.8-3.2-3.9-4.3-6.4S4,26.8,4,24s0.5-5.4,1.6-7.8s2.5-4.5,4.3-6.3s3.9-3.2,6.4-4.3
	S21.2,4,24,4s5.4,0.5,7.8,1.6s4.6,2.5,6.4,4.3s3.2,3.9,4.3,6.3c1.1,2.4,1.6,5,1.6,7.8s-0.5,5.4-1.6,7.8c-1,2.4-2.5,4.5-4.3,6.4
	c-1.8,1.8-3.9,3.2-6.4,4.3S26.8,44,24,44z M24,41c4.7,0,8.8-1.6,12.1-4.9C39.4,32.8,41,28.7,41,24s-1.6-8.8-4.9-12.1
	C32.8,8.6,28.7,7,24,7s-8.8,1.6-12.1,4.9C8.6,15.2,7,19.3,7,24s1.6,8.8,4.9,12.1C15.2,39.4,19.3,41,24,41z"/>
</svg>
