<?xml version="1.0" encoding="utf-8"?>
<!-- Generator: Adobe Illustrator 27.7.0, SVG Export Plug-In . SVG Version: 6.00 Build 0)  -->
<svg version="1.1" id="レイヤー_1" xmlns="http://www.w3.org/2000/svg" xmlns:xlink="http://www.w3.org/1999/xlink" x="0px"
	 y="0px" viewBox="0 0 48 48" style="enable-background:new 0 0 48 48;" xml:space="preserve">
<style type="text/css">
	.st0{fill:#FFFFFF;}
</style>
<path class="st0" d="M19.6,36c0.6,0,1.1-0.1,1.6-0.3c0.5-0.2,1-0.4,1.5-0.7c0.2-0.1,0.4-0.2,0.6-0.3c0.2-0.1,0.4-0.2,0.7-0.2
	c0.3,0,0.7,0.2,1.3,0.5c0.5,0.3,1,0.5,1.5,0.7c0.5,0.2,1.1,0.3,1.6,0.3c1.7,0,3-0.6,4-1.8c1-1.2,1.5-2.8,1.5-4.7
	c0-2.4-0.8-4.2-2.5-5.6c-1.6-1.3-4-1.9-7.1-1.9h-0.8c-3.1,0-5.5,0.6-7.1,1.9c-1.7,1.3-2.5,3.2-2.5,5.6c0,2,0.5,3.5,1.5,4.7
	C16.5,35.4,17.9,36,19.6,36z M19.5,33c-0.8,0-1.4-0.3-1.9-0.9c-0.4-0.6-0.7-1.5-0.7-2.6c0-1.5,0.5-2.7,1.6-3.4
	c1.1-0.7,2.8-1.1,5-1.1h0.8c2.3,0,3.9,0.4,5,1.1c1.1,0.7,1.6,1.9,1.6,3.4c0,1.1-0.2,2-0.6,2.6c-0.4,0.6-1.1,0.9-1.9,0.9
	c-0.4,0-1-0.2-1.7-0.6c-0.4-0.3-0.9-0.5-1.3-0.7c-0.5-0.2-0.9-0.2-1.4-0.2s-1,0.1-1.4,0.2c-0.5,0.2-0.9,0.4-1.4,0.7
	c-0.3,0.2-0.5,0.3-0.8,0.4C20.1,32.9,19.8,33,19.5,33z M12.6,21.4c2-0.8,3.6-1.7,4.8-2.6s2.3-2.3,3.4-4l-2.5-1.6
	c-0.9,1.4-1.8,2.4-2.7,3.2c-1,0.7-2.3,1.5-4.1,2.2L12.6,21.4z M35.4,21.4l1.1-2.8c-1.8-0.7-3.1-1.5-4-2.2c-0.9-0.7-1.9-1.8-2.8-3.2
	l-2.5,1.6c1.1,1.7,2.2,3,3.4,3.9C31.9,19.7,33.4,20.6,35.4,21.4z M24,44c-2.8,0-5.4-0.5-7.8-1.6s-4.6-2.5-6.4-4.3
	c-1.8-1.8-3.2-3.9-4.3-6.4S4,26.8,4,24s0.5-5.4,1.6-7.8s2.5-4.5,4.3-6.3s3.9-3.2,6.4-4.3S21.2,4,24,4s5.4,0.5,7.8,1.6
	s4.6,2.5,6.4,4.3s3.2,3.9,4.3,6.3c1.1,2.4,1.6,5,1.6,7.8s-0.5,5.4-1.6,7.8c-1,2.4-2.5,4.5-4.3,6.4c-1.8,1.8-3.9,3.2-6.4,4.3
	S26.8,44,24,44z M24,41c4.7,0,8.8-1.6,12.1-4.9C39.4,32.8,41,28.7,41,24s-1.6-8.8-4.9-12.1C32.8,8.6,28.7,7,24,7s-8.8,1.6-12.1,4.9
	C8.6,15.2,7,19.3,7,24s1.6,8.8,4.9,12.1C15.2,39.4,19.3,41,24,41z"/>
</svg>
