<?xml version="1.0" encoding="utf-8"?>
<!-- Generator: Adobe Illustrator 27.7.0, SVG Export Plug-In . SVG Version: 6.00 Build 0)  -->
<svg version="1.1" id="レイヤー_1" xmlns="http://www.w3.org/2000/svg" xmlns:xlink="http://www.w3.org/1999/xlink" x="0px"
	 y="0px" viewBox="0 0 48 48" style="enable-background:new 0 0 48 48;" xml:space="preserve">
<style type="text/css">
	.st0{fill:#FFFFFF;}
</style>
<path class="st0" d="M31.3,21.4c0.7,0,1.4-0.3,1.9-0.8c0.5-0.5,0.8-1.2,0.8-1.9s-0.3-1.4-0.8-1.9c-0.5-0.5-1.2-0.8-1.9-0.8
	c-0.8,0-1.4,0.3-1.9,0.8s-0.8,1.2-0.8,1.9s0.3,1.4,0.8,1.9S30.6,21.4,31.3,21.4z M16.7,21.4c0.8,0,1.4-0.3,1.9-0.8
	c0.5-0.5,0.8-1.2,0.8-1.9s-0.3-1.4-0.8-1.9c-0.5-0.5-1.2-0.8-1.9-0.8c-0.8,0-1.4,0.3-1.9,0.8c-0.5,0.5-0.8,1.2-0.8,1.9
	s0.3,1.4,0.8,1.9C15.3,21.1,15.9,21.4,16.7,21.4z M24,27.1c-2.2,0-4.3,0.6-6.1,1.9c-1.8,1.2-3.2,2.9-4,5h20.2c-0.8-2.1-2.2-3.8-4-5
	C28.3,27.8,26.2,27.1,24,27.1z M24,44c-2.8,0-5.4-0.5-7.8-1.6s-4.6-2.5-6.4-4.3c-1.8-1.8-3.2-3.9-4.3-6.4S4,26.8,4,24
	s0.5-5.4,1.6-7.8s2.5-4.5,4.3-6.3s3.9-3.2,6.4-4.3S21.2,4,24,4s5.4,0.5,7.8,1.6s4.6,2.5,6.4,4.3s3.2,3.9,4.3,6.3
	c1.1,2.4,1.6,5,1.6,7.8s-0.5,5.4-1.6,7.8c-1,2.4-2.5,4.5-4.3,6.4c-1.8,1.8-3.9,3.2-6.4,4.3S26.8,44,24,44z M24,41
	c4.7,0,8.8-1.6,12.1-4.9C39.4,32.8,41,28.7,41,24s-1.6-8.8-4.9-12.1C32.8,8.6,28.7,7,24,7s-8.8,1.6-12.1,4.9C8.6,15.2,7,19.3,7,24
	s1.6,8.8,4.9,12.1C15.2,39.4,19.3,41,24,41z"/>
</svg>
