<?xml version="1.0" encoding="utf-8"?>
<!-- Generator: Adobe Illustrator 27.7.0, SVG Export Plug-In . SVG Version: 6.00 Build 0)  -->
<svg version="1.1" id="レイヤー_1" xmlns="http://www.w3.org/2000/svg" xmlns:xlink="http://www.w3.org/1999/xlink" x="0px"
	 y="0px" viewBox="0 0 48 48" style="enable-background:new 0 0 48 48;" xml:space="preserve">
<style type="text/css">
	.st0{fill:#FFFFFF;}
</style>
<path class="st0" d="M24,44c-2.8,0-5.4-0.5-7.8-1.6s-4.6-2.5-6.4-4.3s-3.2-3.9-4.3-6.4S4,26.7,4,24c0-2.8,0.5-5.4,1.6-7.8
	s2.5-4.5,4.3-6.3s3.9-3.2,6.4-4.3S21.2,4,24,4s5.4,0.5,7.8,1.6s4.5,2.5,6.4,4.3s3.2,3.9,4.3,6.3c1.1,2.4,1.6,5,1.6,7.8
	c0,2.7-0.5,5.3-1.6,7.8c-1,2.4-2.5,4.6-4.3,6.4s-3.9,3.2-6.4,4.3S26.8,44,24,44z M24,41c4.7,0,8.7-1.7,12-5c3.3-3.3,5-7.3,5-12
	c0-4.7-1.7-8.8-5-12.1s-7.3-5-12-5c-4.7,0-8.8,1.7-12.1,5S7,19.3,7,24c0,4.7,1.7,8.7,4.9,12C15.2,39.3,19.3,41,24,41z M27.6,21.4
	l0.7-0.4c0.1,0.7,0.4,1.2,0.9,1.6s1.1,0.7,1.8,0.7c0.8,0,1.4-0.3,1.9-0.8c0.5-0.5,0.8-1.2,0.8-1.9c0-0.4-0.1-0.8-0.3-1.2
	c-0.2-0.4-0.4-0.7-0.8-0.9l1.3-0.8L33,16l-6.4,3.6L27.6,21.4z M20.4,21.4l1-1.8L15,16l-1,1.8l1.4,0.8c-0.3,0.3-0.6,0.6-0.8,0.9
	c-0.2,0.4-0.3,0.8-0.3,1.2c0,0.8,0.3,1.4,0.8,1.9c0.5,0.5,1.2,0.8,1.9,0.8c0.7,0,1.2-0.2,1.8-0.7s0.8-1,0.9-1.6L20.4,21.4z M24,26.1
	c-2.3,0-4.3,0.8-6,2.3c-1.7,1.5-3,3.4-3.9,5.6H34c-0.9-2.2-2.2-4-3.9-5.6C28.3,26.9,26.3,26.1,24,26.1z"/>
</svg>
