<?xml version="1.0" encoding="utf-8"?>
<!-- Generator: Adobe Illustrator 27.7.0, SVG Export Plug-In . SVG Version: 6.00 Build 0)  -->
<svg version="1.1" id="レイヤー_1" xmlns="http://www.w3.org/2000/svg" xmlns:xlink="http://www.w3.org/1999/xlink" x="0px"
	 y="0px" viewBox="0 0 48 48" style="enable-background:new 0 0 48 48;" xml:space="preserve">
<style type="text/css">
	.st0{fill:#FFFFFF;}
</style>
<path class="st0" d="M14.9,25.2l7.2-5.2l-7.2-5.2l-1.8,2.4L17,20l-3.9,2.8L14.9,25.2z M33.1,25.2l1.8-2.4L31.1,20l3.9-2.8l-1.8-2.4
	L26,20L33.1,25.2z M21,34.1l3-3l3,3l3-3l2,1.9l2.1-2.1l-4-4l-3,3l-3-3l-3,3l-3-3l-4.1,4l2.1,2.1l1.9-1.9L21,34.1z M24,44
	c-2.8,0-5.4-0.5-7.8-1.6s-4.6-2.5-6.4-4.3c-1.8-1.8-3.2-3.9-4.3-6.4S4,26.8,4,24s0.5-5.4,1.6-7.8s2.5-4.5,4.3-6.3s3.9-3.2,6.4-4.3
	S21.2,4,24,4s5.4,0.5,7.8,1.6s4.6,2.5,6.4,4.3s3.2,3.9,4.3,6.3c1.1,2.4,1.6,5,1.6,7.8s-0.5,5.4-1.6,7.8c-1,2.4-2.5,4.5-4.3,6.4
	c-1.8,1.8-3.9,3.2-6.4,4.3S26.8,44,24,44z M24,41c4.7,0,8.8-1.6,12.1-4.9C39.4,32.8,41,28.7,41,24s-1.6-8.8-4.9-12.1
	C32.8,8.6,28.7,7,24,7s-8.8,1.6-12.1,4.9C8.6,15.2,7,19.3,7,24s1.6,8.8,4.9,12.1C15.2,39.4,19.3,41,24,41z"/>
</svg>
