<?xml version="1.0" encoding="utf-8"?>
<!-- Generator: Adobe Illustrator 27.7.0, SVG Export Plug-In . SVG Version: 6.00 Build 0)  -->
<svg version="1.1" id="レイヤー_1" xmlns="http://www.w3.org/2000/svg" xmlns:xlink="http://www.w3.org/1999/xlink" x="0px"
	 y="0px" viewBox="0 0 48 48" style="enable-background:new 0 0 48 48;" xml:space="preserve">
<style type="text/css">
	.st0{fill:#FFFFFF;}
</style>
<path class="st0" d="M18,31h12v-3H18V31z M17,17c-1.1,0-2.1,0.3-3,0.9c-0.9,0.6-1.7,1.4-2.3,2.3l2.5,1.7c0.3-0.5,0.7-0.9,1.2-1.3
	c0.5-0.3,1-0.5,1.6-0.5s1.1,0.2,1.6,0.5c0.5,0.4,0.9,0.8,1.2,1.2l2.5-1.6c-0.6-0.9-1.4-1.6-2.3-2.2S18.1,17,17,17z M31,17
	c-1.1,0-2.1,0.3-3,0.9c-0.9,0.6-1.7,1.4-2.3,2.3l2.5,1.7c0.3-0.5,0.7-0.9,1.2-1.2s1-0.5,1.5-0.5s1.1,0.2,1.6,0.5
	c0.5,0.3,0.9,0.8,1.2,1.2l2.5-1.7c-0.6-0.9-1.4-1.7-2.3-2.3C33.1,17.3,32.1,17,31,17z M24,44c-2.8,0-5.4-0.5-7.8-1.6
	s-4.6-2.5-6.4-4.3c-1.8-1.8-3.2-3.9-4.3-6.4S4,26.8,4,24s0.5-5.4,1.6-7.8s2.5-4.5,4.3-6.3s3.9-3.2,6.4-4.3S21.2,4,24,4
	s5.4,0.5,7.8,1.6s4.6,2.5,6.4,4.3s3.2,3.9,4.3,6.3c1.1,2.4,1.6,5,1.6,7.8s-0.5,5.4-1.6,7.8c-1,2.4-2.5,4.5-4.3,6.4
	c-1.8,1.8-3.9,3.2-6.4,4.3S26.8,44,24,44z M24,41c4.7,0,8.8-1.6,12.1-4.9C39.4,32.8,41,28.7,41,24s-1.6-8.8-4.9-12.1
	C32.8,8.6,28.7,7,24,7s-8.8,1.6-12.1,4.9C8.6,15.2,7,19.3,7,24s1.6,8.8,4.9,12.1C15.2,39.4,19.3,41,24,41z"/>
</svg>
