<?xml version="1.0" encoding="utf-8"?>
<!-- Generator: Adobe Illustrator 27.7.0, SVG Export Plug-In . SVG Version: 6.00 Build 0)  -->
<svg version="1.1" id="レイヤー_1" xmlns="http://www.w3.org/2000/svg" xmlns:xlink="http://www.w3.org/1999/xlink" x="0px"
	 y="0px" viewBox="0 0 48 48" style="enable-background:new 0 0 48 48;" xml:space="preserve">
<style type="text/css">
	.st0{fill:#FFFFFF;}
</style>
<path class="st0" d="M16,24v4c0,2.2,0.8,4.1,2.4,5.7c1.6,1.6,3.5,2.3,5.6,2.3s4.1-0.8,5.6-2.3c1.6-1.6,2.4-3.5,2.4-5.7v-4H16z
	 M24,33c-1.4,0-2.6-0.5-3.5-1.5S19,29.4,19,28v-1h10v1c0,1.4-0.5,2.6-1.4,3.5C26.6,32.5,25.4,33,24,33z M17,14
	c-1.3,0-2.4,0.5-3.4,1.4c-1,0.9-1.7,2.2-2.1,3.8l2.9,0.7c0.2-0.9,0.5-1.6,1-2.1s1-0.8,1.6-0.8s1.1,0.3,1.6,0.8s0.8,1.2,1,2.1
	l2.9-0.7c-0.4-1.6-1.1-2.9-2.1-3.8C19.4,14.5,18.3,14,17,14z M31,14c-1.3,0-2.4,0.5-3.4,1.4c-1,0.9-1.7,2.2-2.1,3.8l2.9,0.7
	c0.2-0.9,0.5-1.6,1-2.1s1-0.8,1.5-0.8s1.1,0.3,1.5,0.8c0.5,0.5,0.8,1.2,1,2.1l2.9-0.7c-0.4-1.6-1.1-2.9-2.1-3.8
	C33.4,14.5,32.3,14,31,14z M24,44c-2.8,0-5.4-0.5-7.8-1.6s-4.6-2.5-6.4-4.3c-1.8-1.8-3.2-3.9-4.3-6.4S4,26.8,4,24s0.5-5.4,1.6-7.8
	s2.5-4.5,4.3-6.3s3.9-3.2,6.4-4.3S21.2,4,24,4s5.4,0.5,7.8,1.6s4.6,2.5,6.4,4.3s3.2,3.9,4.3,6.3c1.1,2.4,1.6,5,1.6,7.8
	s-0.5,5.4-1.6,7.8c-1,2.4-2.5,4.5-4.3,6.4c-1.8,1.8-3.9,3.2-6.4,4.3S26.8,44,24,44z M24,41c4.7,0,8.8-1.6,12.1-4.9
	C39.4,32.8,41,28.7,41,24s-1.6-8.8-4.9-12.1C32.8,8.6,28.7,7,24,7s-8.8,1.6-12.1,4.9C8.6,15.2,7,19.3,7,24s1.6,8.8,4.9,12.1
	C15.2,39.4,19.3,41,24,41z"/>
</svg>
