<?xml version="1.0" encoding="utf-8"?>
<!-- Generator: Adobe Illustrator 27.7.0, SVG Export Plug-In . SVG Version: 6.00 Build 0)  -->
<svg version="1.1" id="レイヤー_1" xmlns="http://www.w3.org/2000/svg" xmlns:xlink="http://www.w3.org/1999/xlink" x="0px"
	 y="0px" viewBox="0 0 48 48" style="enable-background:new 0 0 48 48;" xml:space="preserve">
<style type="text/css">
	.st0{fill:#FFFFFF;}
</style>
<path class="st0" d="M35.9,31.6l-5-5l2.1-2.1l2.9,2.8l7-7l2.1,2.1L35.9,31.6z M22,42l-4.9-4.5c-2.9-2.7-5.3-5-7.2-6.9
	c-1.9-1.9-3.5-3.6-4.6-5.1s-2-3-2.5-4.3C2.2,19.7,2,18.3,2,16.8c0-3,1-5.5,3-7.6S9.5,6,12.5,6c1.9,0,3.7,0.4,5.3,1.3
	c1.6,0.9,3,2.2,4.2,3.9c1.4-1.8,2.9-3.1,4.5-4C28,6.4,29.7,6,31.5,6c2.7,0,5,0.9,6.8,2.7s2.9,4.1,3.3,6.7h-3
	c-0.3-1.8-1.1-3.4-2.3-4.6S33.5,9,31.5,9c-1.7,0-3.3,0.5-4.8,1.6c-1.5,1-2.6,2.5-3.5,4.4h-2.5c-0.9-1.9-2-3.3-3.5-4.4S14.2,9,12.5,9
	c-2.2,0-4,0.7-5.4,2.2S5,14.5,5,16.8c0,1.3,0.3,2.6,0.8,3.8c0.5,1.2,1.4,2.6,2.7,4.2s3,3.4,5.2,5.5s5,4.7,8.3,7.8
	c1.1-1,2.1-1.9,3-2.7c1-0.8,1.9-1.6,2.8-2.5l0.3,0.3c0.2,0.2,0.5,0.5,0.7,0.7c0.3,0.2,0.5,0.5,0.7,0.7l0.3,0.3
	c-0.9,0.8-1.8,1.6-2.8,2.4c-1,0.8-2,1.8-3.1,2.8L22,42z"/>
</svg>
