<?xml version="1.0" encoding="utf-8"?>
<!-- Generator: Adobe Illustrator 27.7.0, SVG Export Plug-In . SVG Version: 6.00 Build 0)  -->
<svg version="1.1" id="レイヤー_1" xmlns="http://www.w3.org/2000/svg" xmlns:xlink="http://www.w3.org/1999/xlink" x="0px"
	 y="0px" viewBox="0 0 48 48" style="enable-background:new 0 0 48 48;" xml:space="preserve">
<style type="text/css">
	.st0{fill:#FFFFFF;}
</style>
<path class="st0" d="M31,40l-8-8l2.1-2.1l5.9,5.9l12-12l2.2,2.1L31,40z M42,19.4h-3V9h-3v4.5H12V9H9v30h12.6v3H9
	c-0.9,0-1.6-0.3-2.2-0.8C6.3,40.6,6,39.9,6,39V9c0-0.9,0.3-1.6,0.8-2.1S8.1,6,9,6h10.1c0.2-1.2,0.8-2.1,1.7-2.9
	C21.7,2.4,22.8,2,24,2c1.2,0,2.3,0.4,3.2,1.1c0.9,0.8,1.5,1.7,1.7,2.9H39c0.9,0,1.6,0.3,2.2,0.8S42,8.1,42,9V19.4z M24,9
	c0.6,0,1-0.2,1.4-0.6S26,7.6,26,7s-0.2-1-0.6-1.4S24.6,5,24,5s-1,0.2-1.4,0.6S22,6.4,22,7s0.2,1,0.6,1.4S23.4,9,24,9z"/>
</svg>
